<?xml version="1.0" standalone="no"?>
<!DOCTYPE svg PUBLIC "-//W3C//DTD SVG 20010904//EN"
 "http://www.w3.org/TR/2001/REC-SVG-20010904/DTD/svg10.dtd">
<svg version="1.0" xmlns="http://www.w3.org/2000/svg"
 width="421.000000pt" height="421.000000pt" viewBox="0 0 421.000000 421.000000"
 preserveAspectRatio="xMidYMid meet">
<metadata>
Created by potrace 1.11, written by Peter Selinger 2001-2013
</metadata>
<g transform="translate(0.000000,421.000000) scale(0.100000,-0.100000)"
fill="#000000" stroke="none">
<path d="M1148 3887 c-42 -28 -79 -59 -80 -67 -3 -15 32 -90 42 -90 3 0 40 33
82 73 l77 72 -14 33 c-8 17 -18 32 -22 32 -4 0 -43 -24 -85 -53z"/>
<path d="M2868 3914 c-16 -8 -28 -21 -28 -29 0 -15 32 -104 52 -142 11 -23 58
-33 58 -13 0 5 14 39 30 75 17 36 30 75 30 87 0 18 -4 20 -33 15 -20 -3 -40 0
-52 9 -23 17 -23 17 -57 -2z"/>
<path d="M3448 3882 c-53 -22 -57 -27 -52 -51 14 -64 9 -61 74 -39 64 21 68
28 47 84 l-12 31 -57 -25z"/>
<path d="M1970 3871 c-27 -7 -50 -17 -50 -22 0 -5 -6 -6 -14 -3 -7 3 -16 -2
-20 -11 -3 -9 -10 -14 -15 -11 -4 3 -33 -17 -62 -45 -30 -28 -61 -53 -69 -54
-8 -2 -16 -4 -17 -5 -2 -2 -7 -4 -13 -5 -5 -1 -11 -4 -12 -5 -2 -2 -16 -4 -33
-6 -41 -4 -56 -8 -82 -22 -13 -7 -23 -9 -23 -5 0 4 -4 3 -8 -2 -4 -6 -23 -22
-42 -35 -19 -13 -37 -27 -40 -30 -3 -3 -22 -14 -42 -23 -20 -10 -40 -22 -43
-27 -4 -6 -10 -8 -14 -5 -10 6 -91 -68 -91 -83 0 -7 -5 -12 -11 -12 -6 0 -8
-7 -5 -16 3 -8 2 -12 -4 -9 -6 3 -10 -2 -10 -12 0 -10 -10 -29 -21 -43 -11
-14 -17 -18 -13 -10 6 12 5 13 -7 3 -9 -7 -24 -14 -35 -16 -46 -9 -80 -21 -92
-34 -7 -7 -20 -13 -28 -13 -8 0 -12 -4 -9 -10 3 -5 2 -10 -4 -10 -13 0 -67
-50 -55 -50 5 0 0 -7 -11 -16 -11 -8 -21 -18 -21 -22 -5 -23 -17 -52 -23 -52
-8 0 -10 -16 -14 -82 -1 -27 -4 -48 -7 -48 -3 0 -5 -13 -5 -29 0 -16 3 -27 6
-25 8 4 20 -31 22 -61 1 -11 9 -29 19 -39 10 -11 18 -24 18 -29 0 -14 102
-107 112 -101 4 3 8 1 8 -3 0 -5 15 -14 34 -21 25 -9 35 -20 40 -42 5 -30 7
-30 61 -29 39 2 60 -3 73 -14 10 -10 22 -14 25 -10 4 3 7 2 7 -3 0 -20 148
-23 160 -4 6 10 8 10 12 0 3 -10 7 -9 19 2 8 8 22 14 32 12 9 -1 15 1 12 5 -2
5 7 13 21 20 19 8 24 8 18 0 -5 -8 -3 -9 7 -4 15 10 99 13 104 4 2 -3 17 -4
33 -3 26 2 29 -1 24 -20 -3 -11 -10 -26 -16 -33 -61 -66 -101 -117 -101 -127
0 -8 -6 -21 -14 -30 -12 -14 -15 -14 -40 2 -61 43 -108 33 -135 -28 -13 -30
-23 -40 -41 -40 -13 0 -30 -3 -39 -6 -10 -4 -23 7 -39 33 -14 22 -46 62 -72
89 -26 27 -53 57 -60 67 -11 16 -16 16 -85 -7 -41 -14 -81 -32 -89 -41 -15
-15 -13 -19 20 -48 20 -18 48 -56 63 -84 14 -28 30 -54 36 -58 6 -3 7 -18 4
-33 -3 -15 -6 -37 -6 -49 0 -13 -4 -23 -10 -23 -5 0 -6 6 -2 13 5 7 1 7 -12
-3 -10 -8 -20 -15 -21 -15 -2 -1 11 -41 27 -90 17 -49 30 -91 30 -93 0 -2 -12
4 -27 14 -32 20 -73 25 -89 9 -11 -10 -24 -43 -31 -75 -16 -74 -3 -155 49
-310 18 -52 32 -97 33 -100 0 -3 15 -31 33 -62 29 -52 36 -58 72 -64 27 -4 40
-12 41 -23 0 -9 2 -25 4 -35 43 -231 136 -461 195 -488 16 -7 38 -28 49 -48
25 -44 89 -110 107 -110 8 0 44 -31 80 -70 63 -66 97 -85 106 -58 2 6 24 -11
49 -37 98 -106 104 -109 114 -55 7 34 14 36 32 9 26 -37 96 -105 116 -112 14
-5 33 8 78 54 32 33 59 65 59 70 0 5 5 9 10 9 6 0 10 -8 10 -18 0 -10 6 -26
13 -37 13 -17 16 -15 54 26 101 109 92 102 109 84 15 -15 18 -14 38 2 24 20
47 44 94 97 18 20 37 34 41 32 14 -9 104 86 115 122 4 12 22 29 40 37 26 13
43 35 78 103 25 48 46 92 48 97 4 14 11 36 20 65 23 67 42 146 56 230 8 46 11
50 38 50 27 0 67 40 94 95 18 37 75 201 72 207 -1 2 3 16 9 31 41 108 27 262
-25 286 -23 10 -45 5 -107 -27 -4 -2 2 17 13 42 10 25 17 46 14 46 -2 0 5 18
16 40 11 22 17 40 13 40 -4 0 -2 5 4 11 18 18 4 39 -25 39 -24 0 -25 1 -7 13
14 11 15 16 5 22 -8 5 -11 4 -7 -2 3 -5 0 -10 -8 -10 -13 0 -13 2 -1 16 27 30
-4 115 -34 96 -17 -11 -60 4 -60 20 0 18 -57 35 -85 25 -14 -5 -27 1 -48 21
-16 16 -36 30 -45 30 -9 1 -24 2 -32 3 -8 1 -28 -5 -44 -12 -25 -12 -31 -12
-40 -1 -6 8 -20 21 -30 29 -18 13 -19 13 -11 0 6 -12 5 -12 -5 -3 -7 6 -19 9
-27 6 -7 -3 -13 -2 -11 3 4 14 -20 52 -52 82 -15 15 -30 38 -31 52 -4 23 -1
25 33 25 20 0 34 -3 32 -7 -5 -7 4 -10 22 -7 4 0 10 -4 14 -11 4 -6 13 -13 21
-14 8 -2 21 -6 29 -9 28 -12 130 -15 130 -4 0 6 3 8 6 5 8 -9 94 22 94 33 0
24 20 5 26 -25 6 -37 36 -72 53 -62 5 3 22 1 38 -5 15 -7 46 -14 68 -16 22 -2
47 -7 55 -10 8 -3 18 -7 23 -8 4 -2 8 -3 10 -5 1 -1 9 -3 17 -5 128 -31 122
-32 165 14 36 37 54 46 120 55 13 2 33 27 60 78 22 41 52 95 67 119 27 44 27
46 13 99 -12 48 -23 119 -24 172 -2 32 -28 47 -78 42 -26 -3 -51 -8 -54 -12
-4 -4 -14 -34 -24 -67 -30 -105 -69 -173 -165 -284 -27 -32 -170 -91 -170 -70
0 5 12 12 27 15 26 7 54 27 54 38 0 3 7 23 16 43 9 21 17 40 18 43 1 3 4 12 8
20 24 59 48 155 54 213 5 62 4 69 -16 83 -11 8 -21 23 -21 33 0 22 -56 110
-75 117 -8 4 -13 10 -10 14 3 5 -17 21 -45 37 -27 15 -50 31 -50 35 0 4 -7 5
-15 2 -8 -4 -15 -2 -15 3 0 5 -10 9 -22 10 -49 1 -57 4 -63 23 -4 11 -11 18
-16 15 -5 -4 -9 2 -9 12 0 28 -57 113 -75 113 -9 0 -13 5 -10 10 3 6 -1 10
-10 10 -9 0 -14 4 -10 9 3 6 -4 8 -15 6 -11 -2 -18 0 -16 4 3 4 -14 16 -37 26
-23 10 -51 27 -62 38 -27 25 -97 62 -112 59 -7 -2 -13 2 -13 8 0 6 -4 8 -10 5
-5 -3 -10 -2 -10 3 0 5 -16 8 -36 7 -19 0 -38 3 -40 7 -3 4 -14 8 -25 8 -10 0
-19 5 -19 10 0 6 -5 10 -10 10 -6 0 -23 12 -38 28 -47 46 -80 71 -86 65 -3 -4
-6 -1 -6 6 0 7 -4 10 -9 6 -5 -3 -12 -1 -16 5 -4 6 -11 8 -16 5 -5 -4 -9 -2
-9 4 0 25 -173 34 -250 12z"/>
<path d="M804 3731 c-94 -196 -103 -235 -80 -352 l8 -36 97 20 c111 22 130 33
140 79 10 48 4 70 -30 108 -48 56 -52 68 -29 82 43 27 11 178 -41 191 -15 4
-27 -13 -65 -92z"/>
<path d="M741 2910 c-24 -11 -47 -20 -53 -20 -5 0 -18 -9 -30 -20 l-21 -19 28
-63 c104 -232 145 -310 161 -304 9 3 19 6 24 6 5 0 9 29 9 65 0 36 7 90 16
121 17 58 15 69 -17 144 -11 25 -26 60 -34 78 -16 37 -24 38 -83 12z"/>
</g>
</svg>
